# xmcd
#
# Track frame offsets: 
#        182
#        12155
#        23285
#        34185
#        46135
#        61520
#        73005
#        83890
#        94980
#        105975
#        118170
#        130605
#
# Disc length: 1936 seconds
#
# Revision: 10
# Processed by: cddbd v1.5.2PL0 Copyright (c) Steve Scherf et al.
# Submitted via: ExactAudioCopy v1.1
#
DISCID=88078e0c
DTITLE=J.J. Cale - Naturally
DYEAR=1972
DGENRE=Blues
TTITLE0=Call Me the Breeze
TTITLE1=Call the Doctor
TTITLE2=Don't Go to Strangers
TTITLE3=Woman I Have
TTITLE4=Magnolia
TTITLE5=Clyde
TTITLE6=Crazy Mama
TTITLE7=Nowhere to Run
TTITLE8=After Midnight
TTITLE9=River Runs Deep
TTITLE10=Bringing It Back
TTITLE11=Crying Eyes
EXTD=
EXTT0=
EXTT1=
EXTT2=
EXTT3=
EXTT4=
EXTT5=
EXTT6=
EXTT7=
EXTT8=
EXTT9=
EXTT10=
EXTT11=
PLAYORDER=
